<svg preserveAspectRatio="none" overflow="visible" style="display: block;" width="34.093" height="38.9535" viewBox="0 0 34.093 38.9535" fill="none" xmlns="http://www.w3.org/2000/svg">
<g id="Group 48099543">
<path id="Vector" d="M17.9663 0.586222C19.4929 0.402565 20.5343 1.11906 20.7541 2.46667C20.7955 2.72101 20.8668 2.89302 20.8678 3.17143C21.083 3.44269 21.3587 3.56086 21.4019 3.79156C21.3791 3.90831 21.2865 3.9698 21.1898 4.05945C21.2042 4.53982 21.3587 5.98429 21.0551 6.39787C20.899 6.61052 20.3062 6.7973 20.1382 7.04161L20.158 7.09384C20.2517 7.17392 20.4062 7.24997 20.5253 7.24403C20.9879 7.22094 21.499 6.9293 21.972 6.79237C22.5142 6.6354 23.5657 6.70263 23.9644 6.59392C24.2352 6.5201 25.6661 6.12934 25.7958 6.05607C26.3344 5.7518 26.5878 5.51489 27.286 5.24144C28.1763 4.89275 29.2222 4.75147 30.0306 4.30681C30.2702 4.17499 30.8363 3.5696 31.0636 3.35633C31.4171 3.02433 31.4264 2.76053 31.9106 2.54707C32.2782 2.38498 32.1124 2.94791 32.0168 3.31064C32.3098 3.17498 33.393 2.51218 33.6602 2.75358C33.6155 3.03741 33.0606 3.37037 33.0606 3.37037C33.0606 3.37037 34.009 3.10293 34.093 3.39939C34.0006 3.62075 33.6946 3.77106 33.4621 3.87299C33.6328 3.89147 33.9521 3.89219 33.9612 4.08332C33.8456 4.24408 33.3729 4.3828 33.153 4.46545C33.332 4.47905 33.5056 4.47185 33.6495 4.5587L33.6572 4.6086C33.4486 4.85095 32.9457 4.89151 32.624 4.95311C32.0538 5.06225 31.5905 5.20388 31.0986 5.48512C30.2949 5.96212 29.8574 7.06657 29.1471 7.64654C28.3926 8.26266 27.6555 8.52553 26.8022 8.9733C26.4021 9.18331 26.0336 9.26063 25.6566 9.51396C25.2142 9.81122 24.7111 10.0546 24.2322 10.3053C24.8376 10.9134 25.136 11.7467 24.5239 12.3976C24.3215 12.6128 24.1412 12.7465 23.8982 12.8865C24.2047 13.2587 24.6837 13.8178 24.9219 14.2167C25.7458 15.5964 26.1595 17.3455 25.6518 18.8715C25.2431 20.0995 25.7968 20.19 24.6021 20.7729C24.0684 21.0127 25.1938 20.6449 24.6021 20.7729C24.6666 21.0661 24.6883 21.4668 24.7083 21.7689C24.8001 23.1952 24.6449 24.7124 24.0427 26.0456C23.6883 26.83 23.3008 27.3636 23.2076 28.24C23.1581 28.5089 22.978 28.8891 22.9816 29.1552C23.0085 31.0036 22.8578 32.8116 22.8806 34.6626C22.894 35.7575 23.7525 35.9751 24.5702 36.5225C25.0672 36.8555 26.2427 37.0815 26.5386 37.3859C26.61 37.6353 26.3002 37.7647 26.0697 37.8077C25.0898 37.9901 24.1524 37.671 23.1637 37.5966C22.3588 37.5361 21.4429 37.8252 20.6891 37.5191C20.2069 37.2775 20.676 35.9201 20.5044 35.3585C20.0863 34.0057 19.0225 32.8978 18.6402 31.5332C18.4843 30.9765 18.4764 30.485 18.565 29.9177C18.6479 29.387 18.8251 29.0414 19.128 28.5873C19.3045 28.6894 19.3822 28.7326 19.5752 28.8125C18.84 28.0811 18.6551 27.7312 18.2654 26.843C18.7757 26.0131 19.4395 24.7983 19.6923 23.8718C19.7642 23.6086 19.7407 22.7784 19.7213 22.478C19.6215 22.8591 19.5961 23.3094 19.4815 23.6957C19.1687 24.7487 18.5619 26.0162 17.9431 26.9479C17.3307 27.8101 13.2798 30.0589 12.1907 30.4196C11.9075 30.5137 11.4555 30.4986 11.1147 30.5956C11.3786 30.63 11.5916 30.6445 11.8562 30.6618C10.9003 32.1592 8.96959 33.3097 7.50142 34.3081C6.6784 34.884 6.14921 35.5857 5.94721 36.5041C5.76972 37.3109 6.25581 37.9782 6.25581 37.9782C6.25581 37.9782 6.34078 38.2415 6.27902 38.3946C6.22311 38.5333 5.81841 38.6173 5.81841 38.6173C5.81841 38.6173 3.81266 38.3621 3.43026 37.4771C3.24767 37.0546 3.54508 36.4085 3.55199 35.9594C3.55852 35.5291 3.41585 35.0866 3.56782 34.6691C3.78871 34.0622 4.62591 33.9884 4.98684 33.4794C5.11667 33.2962 5.31351 32.8414 5.3897 32.6329C5.80563 31.494 6.18379 30.6118 7.14136 29.7436C8.27369 28.7168 10.6776 28.7245 10.9889 28.4074C11.5456 27.8381 12.0831 27.579 12.1907 26.7066C12.2486 26.2373 11.9358 25.6083 11.8743 25.0909C11.7873 24.3584 11.9956 23.6178 11.9137 22.9199C11.8092 22.0309 11.3684 21.3154 11.3693 20.382C11.3701 20.1525 11.3937 19.9234 11.4399 19.6974C11.6084 18.8431 11.9911 17.789 12.6561 17.1312C13.0641 16.7355 13.398 16.647 13.5565 16.0851C13.726 15.4847 14.11 14.7722 14.6839 14.4117C14.4759 14.1057 14.2207 13.7236 14.0729 13.3948C13.7748 12.7314 13.5695 12.1313 13.2314 11.4783C14.079 11.1678 14.3553 10.9783 14.8947 10.3344C13.3683 11.4746 12.2961 11.3439 10.4195 10.8593C10.0216 10.7565 9.46193 10.959 9.06511 10.8589C8.0043 10.5915 7.20125 10.4955 6.19663 9.9746C5.4828 9.6045 4.53545 8.66088 3.88132 8.42742C3.10925 8.15182 1.25931 8.4327 0.77348 8.12277C0.528321 7.96638 1.05801 7.93945 1.34044 7.7969C1.0932 7.79186 0.583814 7.75596 0.456831 7.55575L0.43111 7.50307C0.696796 7.31884 1.15279 7.32117 1.48909 7.3018C1.14004 7.23553 0.0603362 7.08741 0 6.74486C0.224442 6.42863 1.29105 6.73045 1.62341 6.8086C1.35937 6.67677 0.234004 6.38478 0.317554 6.05174C0.769377 5.8104 1.84457 6.48017 2.4043 6.41315L2.44236 6.3205C2.39464 6.05168 1.9256 5.43844 2.35622 5.46597C2.91562 5.50172 2.97367 5.74029 3.35033 6.02179C3.70668 6.28812 4.06187 6.31625 4.5095 6.481C5.17825 6.72715 6.05954 6.71973 6.76976 6.78077C7.36182 6.82503 7.94747 6.94398 8.51564 7.13531C9.3353 7.4149 9.25243 7.67981 9.79111 8.204L9.53038 7.41577C10.3414 7.37832 11.1693 7.61584 11.9472 7.38675C12.1296 7.33302 12.5742 7.2385 12.6822 7.09886L12.643 7.06611C12.1646 7.04524 11.821 7.16853 11.3567 7.24322C11.0775 7.28814 10.516 7.3521 10.516 7.3521C10.516 7.3521 10.7736 6.83667 11.4861 6.5885C11.2742 6.54973 10.6094 6.26567 10.6094 6.26567C10.6094 6.26567 13.1423 6.12908 13.2979 5.59878C13.1658 5.49241 12.8376 5.38262 12.5216 5.34093L12.1619 4.60832C12.101 4.51155 11.8383 4.63561 11.7847 4.5327C12.6715 4.51633 13.2675 4.50033 13.8143 3.78424C14.9533 2.29296 15.7656 0.832722 17.9663 0.586222Z" fill="#1482BF"/>
<path id="Vector_2" d="M17.782 0.748321C18.3668 0.666381 19.4346 0.897482 19.2924 1.80243C19.4048 1.98547 19.5853 2.25657 19.6436 2.4582C19.7079 2.70234 19.6643 2.94148 19.7944 3.16609C19.917 3.37756 20.33 3.61741 20.3558 3.88553C20.3649 3.98335 20.2015 4.12511 20.1352 4.18991C20.2295 4.53931 20.2387 4.7586 20.1433 5.11637C20.4844 6.21597 19.6652 5.65394 19.2607 6.01395C19.1282 6.13188 19.1351 6.64665 19.1527 6.85283C19.2083 7.51003 19.5615 7.91737 20.0031 8.30753C20.5702 8.09788 21.1014 7.91484 21.7036 7.87316C22.1153 7.84467 22.5083 7.86898 22.9204 7.80514C23.3768 7.73448 23.7106 7.57441 24.1233 7.37516C24.7377 7.0784 25.1536 6.62111 25.7165 6.259C26.0524 6.05518 26.3783 5.91737 26.7305 5.74468C27.4829 5.37597 28.3067 4.98481 28.9517 4.40148C29.1755 4.19911 29.3463 3.68789 29.5502 3.42621C29.7532 3.16597 29.9571 2.93381 30.1647 2.68023C30.2382 2.58462 30.3509 2.30297 30.4379 2.19478C30.4891 2.13122 30.4942 2.14629 30.5593 2.14848C30.864 2.36009 30.4452 2.99266 30.3129 3.24356C30.9848 3.01776 31.4033 2.68276 32.0257 2.37502C32.0799 2.3483 32.1168 2.361 32.1639 2.39069C32.232 2.67546 31.4368 3.22102 31.2272 3.39452C31.4183 3.31331 32.5804 2.76034 32.6082 3.07161C32.4918 3.36007 31.7339 3.62638 31.3921 3.8421C31.7195 3.78714 32.0029 3.6703 32.3246 3.60015C32.4156 3.58027 32.5223 3.61688 32.5226 3.73805C32.3681 4.00669 31.7321 4.13841 31.4214 4.33954L31.391 4.35945C31.6291 4.36486 32.0833 4.27432 32.2595 4.41346L32.265 4.46039C32.1399 4.64972 31.7439 4.73976 31.5398 4.79062C30.9762 4.92891 30.4089 5.23109 29.8275 5.23679C29.476 5.24023 29.345 5.38388 29.0673 5.59105C28.7352 5.83615 28.4302 6.12602 28.1596 6.45419C27.7919 6.90075 27.5005 7.34254 27.0704 7.72903C26.4631 8.27506 25.7549 8.27876 25.0714 8.62641C24.7807 8.77421 24.4762 8.97497 24.2003 9.16017C23.3963 9.69988 22.8614 10.0366 21.9315 10.2407C22.205 10.6012 22.5952 11.0895 22.6432 11.5683C22.7283 12.4217 22.235 12.7023 21.9687 13.3403C21.9215 13.4531 21.8205 14.0913 21.7797 14.2639C21.5122 15.4023 21.3425 16.5576 20.7089 17.5183C22.3522 17.2616 23.8384 17.0386 25.5123 17.3407C26.46 17.5117 28.0254 17.95 28.6562 18.8205C28.8595 19.128 28.854 19.6452 28.7886 20.0007C28.5588 21.249 27.5714 22.0312 26.8018 22.8655C25.5293 24.2443 24.1699 25.5999 23.1527 27.2393C22.7939 27.8179 22.5617 28.5215 22.2268 29.1197C22.0244 29.4731 21.8017 29.7491 21.5682 30.1501C21.3314 30.557 21.2344 31.7427 20.673 31.6392C20.1249 31.4403 20.217 30.0706 20.4438 29.6171C20.6901 29.1247 20.9564 28.7908 21.0197 28.234C21.0875 27.6393 20.7573 27.1536 20.9155 26.5725C21.0647 25.7477 22.1297 26.0086 22.4225 25.5641C23.4789 23.9603 23.3641 22.0925 24.9796 20.8306C25.2213 20.6429 25.4823 20.4894 25.7566 20.3739C25.917 20.3053 26.0823 20.256 26.231 20.1632C25.0262 20.3688 24.5052 20.6832 23.3709 21.101C22.5877 21.3965 21.7799 21.598 20.9609 21.7024C19.1709 21.9163 17.0514 21.5227 16.2566 19.4773C16.1014 19.078 16.0656 18.7129 16.0319 18.2836C16.0226 18.4064 16.0101 18.5314 16.0063 18.653C15.9584 20.2569 17.0107 21.5204 18.33 21.9224C18.794 22.0637 19.1809 22.1052 19.6576 22.1237C19.204 23.0188 18.7818 23.6435 18.1958 24.4373C17.5324 25.3154 16.778 26.1665 16.066 26.9981C15.6766 27.4259 15.3066 27.9204 14.881 28.3011C14.507 28.6354 13.9323 28.6545 13.5662 29.0151C13.3442 29.2336 13.1396 29.4933 12.936 29.7352C12.6551 30.0702 12.3687 30.3994 12.0771 30.7225C11.2273 31.6684 10.3321 32.5703 9.50854 33.5437C9.27945 33.842 8.99287 34.1545 8.79646 34.4819C8.383 35.171 7.92637 35.764 7.44185 36.3844C7.31622 36.5454 7.11933 37.0164 7.01957 37.2162C6.78182 37.6927 6.48087 37.8496 6.26226 37.2578C5.91959 36.1745 6.68539 35.5274 6.92905 34.5826C7.04395 34.1371 6.86549 33.603 7.06777 33.1737C7.35441 32.4947 8.14489 32.9435 8.5233 32.4005C9.7298 30.6685 9.97336 28.1849 11.8499 27.0581C12.2035 26.8457 12.8224 26.6134 13.0407 26.2247C13.5309 25.3523 13.8515 24.3405 14.2365 23.4049C14.5569 22.611 14.8945 21.8775 15.2478 21.1073C14.9979 20.0493 15.0426 19.1406 15.6303 18.2217C15.757 18.0237 15.9505 17.8668 16.0638 17.6602C16.1471 17.5086 16.1903 17.2946 16.2541 17.1288C16.5136 16.3122 17.2422 15.792 17.4555 14.9549C17.5291 14.671 17.5362 14.3711 17.4763 14.0844C17.3682 13.5708 16.9053 12.6311 16.6724 12.1568L15.604 10.018C15.1514 10.126 14.6582 10.1873 14.1996 10.2344C13.2473 10.3321 10.7127 10.0544 9.80694 9.90244C9.15097 9.79237 8.73132 9.907 8.04509 9.58651C7.38047 9.2627 6.67152 8.93066 6.01063 8.6106C5.33186 8.28192 4.9777 8.20677 4.25042 8.23587C3.88566 8.19921 3.5124 8.11802 3.15205 8.04576C2.87311 7.98979 2.21091 8.13875 2.01252 7.95049C1.98514 7.69069 2.82717 7.59832 3.00325 7.56209C2.71791 7.47822 2.43415 7.42604 2.14565 7.36127C2.01818 7.33264 1.59727 7.25396 1.66181 7.04267C1.86375 6.8994 2.58457 7.02379 2.87327 7.04231C2.57185 6.87656 1.50604 6.6535 1.41576 6.37064C1.54787 6.09093 2.68231 6.43587 2.95339 6.49869L2.93714 6.48659L2.90979 6.46684C2.70255 6.31533 1.69867 5.85786 1.8679 5.58794C2.07897 5.48209 2.55228 5.78033 2.7718 5.88915C3.15584 6.07952 3.44312 6.17943 3.85189 6.26467C3.74499 6.05865 3.25273 5.41748 3.50907 5.18234C3.71224 5.03552 3.83187 5.54708 3.93883 5.65538C4.3213 6.04258 4.7047 6.50125 5.09037 6.86888C5.47587 7.23633 6.27863 7.32374 6.77447 7.38712C7.68277 7.5032 8.5897 7.49966 9.44987 7.91106C10.3765 8.33498 13.1163 8.35237 14.0408 7.87642C14.6709 7.55206 15.407 7.25357 16.107 7.32346C16.4779 7.35844 16.7783 7.46329 17.1286 7.60061C17.5143 6.93131 17.5883 6.49199 17.5718 5.70534C17.1979 6.54254 16.8222 6.77037 16.1351 6.14975C15.7783 6.24149 15.5014 6.31072 15.1336 6.31217C13.657 6.31802 12.8447 4.91639 11.359 5.14018C12.5074 4.29376 12.7799 4.96673 13.9836 4.75743C13.8067 4.71489 13.4889 4.66941 13.3295 4.59383C12.3359 4.12239 11.8746 3.94616 10.8505 4.54163C11.3048 3.82299 11.8769 3.44659 12.667 3.57397C13.3737 3.68785 13.5814 3.77656 14.2628 3.45446C13.2144 3.55267 13.0686 2.90234 12.1555 3.0795C13.0917 2.4102 13.438 3.19093 14.4083 2.81627C14.8137 2.65976 15.1239 2.37114 15.402 2.0107C16.0539 1.16575 16.7884 0.826044 17.782 0.748321Z" fill="#1482BF"/>
<path id="Vector (Stroke)" d="M17.7554 0.559059C18.1553 0.509473 18.5489 0.55696 18.9223 0.741103C19.2817 0.894261 19.5556 1.35468 19.5046 1.76047C19.6229 1.9483 19.7545 2.13587 19.8438 2.40551C19.9154 2.69929 19.8884 2.92898 19.9774 3.06058C20.019 3.1306 20.1456 3.24066 20.2598 3.35139C20.3705 3.46985 20.5274 3.58714 20.5708 3.86504C20.5649 4.0917 20.4804 4.12577 20.4347 4.19562C20.4168 4.21643 20.3961 4.23424 20.378 4.25281C20.4409 4.52294 20.4427 4.84641 20.3737 5.11373C20.4087 5.23248 20.4416 5.35737 20.4493 5.50347C20.4517 5.59123 20.4496 5.69411 20.3912 5.81245C20.3328 5.93575 20.1974 6.02059 20.1019 6.0467C19.7388 6.1246 19.518 6.08686 19.421 6.18111C19.4201 6.20471 19.3799 6.34547 19.3821 6.43752C19.3747 6.56618 19.3768 6.70643 19.3876 6.83332C19.42 7.30435 19.6865 7.68782 20.0567 8.02668C20.4758 7.87169 20.914 7.72373 21.3801 7.65439C21.4814 7.63921 21.5836 7.62774 21.6863 7.62016C22.1131 7.58938 22.5132 7.60928 22.8804 7.54875C23.2666 7.4911 23.6228 7.3266 24.0082 7.13611C24.5438 6.88132 24.9856 6.40807 25.574 6.02356C25.9179 5.81204 26.2773 5.65741 26.6075 5.4932C27.3849 5.10872 28.1545 4.7331 28.7556 4.1849C28.9234 4.023 29.0445 3.62103 29.3152 3.24288C29.417 3.11104 29.5215 2.98385 29.6251 2.85886L29.9251 2.49613C29.9369 2.48135 29.9897 2.3793 30.0287 2.29998C30.0747 2.21223 30.1043 2.13365 30.2011 2.00381C30.231 1.9796 30.2156 1.94065 30.3902 1.86027C30.5909 1.81805 30.5541 1.85072 30.5694 1.84358C30.6093 1.84474 30.6999 1.8752 30.7331 1.89786C30.9293 2.02124 30.9912 2.29301 30.9726 2.43664C30.9675 2.50194 30.9553 2.56034 30.942 2.61436C31.2417 2.4475 31.5466 2.25858 31.8847 2.08939C31.9381 2.06148 32.0424 2.02852 32.1462 2.04625C32.2481 2.06367 32.3012 2.10114 32.3342 2.12043C32.3865 2.15314 32.4593 2.25593 32.4742 2.31608C32.4901 2.46579 32.4753 2.57006 32.4469 2.64849C32.4571 2.6484 32.4677 2.6468 32.4785 2.64702C32.5343 2.65031 32.6061 2.65164 32.7103 2.70266C32.818 2.74462 32.9401 2.92405 32.9388 3.04244C32.9418 3.07695 32.9283 3.16346 32.9156 3.19546C32.8649 3.30236 32.8104 3.37489 32.7568 3.43056C32.8322 3.52793 32.8706 3.65459 32.865 3.7374C32.8651 3.77777 32.8395 3.87387 32.8196 3.90882C32.7198 4.04951 32.623 4.13758 32.5309 4.20043C32.5688 4.25508 32.6029 4.32642 32.6085 4.3733C32.6104 4.38881 32.6118 4.40451 32.6137 4.42001C32.6207 4.4791 32.5905 4.60457 32.5579 4.65427C32.376 4.89972 32.2032 4.94327 32.0529 5.00876C31.9015 5.06565 31.7539 5.10205 31.6241 5.13464C31.1095 5.25675 30.5562 5.57701 29.8315 5.59827C29.7236 5.601 29.6675 5.61424 29.5944 5.65549C29.5196 5.6974 29.4082 5.79063 29.2837 5.88406C28.9729 6.11539 28.6915 6.38772 28.445 6.68913C28.1063 7.10107 27.7823 7.5922 27.3214 8.00785C26.6531 8.62264 25.7853 8.67114 25.2452 8.96772C24.9709 9.1091 24.6954 9.29248 24.4159 9.48136C23.8827 9.85219 23.2614 10.2328 22.5924 10.466C22.7934 10.752 22.9771 11.0829 23.0412 11.5284C23.0895 11.9048 23.0039 12.3651 22.8092 12.697C22.6209 13.0311 22.4389 13.2556 22.3439 13.4975C22.3393 13.5169 22.292 13.7392 22.2686 13.8749C22.2396 14.0311 22.2184 14.1718 22.1783 14.3574C21.9808 15.1921 21.8395 16.1073 21.4676 16.9759C22.8051 16.7802 24.203 16.6568 25.5896 16.9145C26.7826 17.17 28.0588 17.4204 29.0151 18.5611C29.0175 18.5645 29.0234 18.5734 29.0254 18.5764C29.3521 19.1421 29.2924 19.6085 29.2273 20.0814C28.9773 21.4795 27.8811 22.3592 27.1359 23.1735C25.8409 24.58 24.5127 25.921 23.5492 27.4851C23.2215 28.0141 23.0057 28.6817 22.6357 29.3533C22.408 29.7495 22.1616 30.0634 21.9775 30.3877C21.906 30.5144 21.8205 30.8705 21.7118 31.1838C21.6524 31.3483 21.5909 31.5222 21.4535 31.7215C21.3828 31.8198 21.2876 31.9323 21.128 32.0219C20.9707 32.1138 20.749 32.1417 20.5867 32.1076C20.5711 32.1048 20.5262 32.0924 20.5109 32.0869C20.1036 31.929 19.9666 31.5926 19.8915 31.3689C19.8173 31.1297 19.7954 30.9128 19.7882 30.6999C19.7885 30.2666 19.7998 29.9002 20.0144 29.4022C20.2724 28.8975 20.5106 28.5551 20.5398 28.179C20.6202 27.8367 20.2512 27.2648 20.4475 26.4448L20.4379 26.486C20.4757 26.2507 20.6076 25.9733 20.8149 25.795C21.0193 25.6148 21.2373 25.5343 21.4169 25.4769C21.598 25.4206 21.7587 25.3868 21.8773 25.3487C21.9606 25.3249 22.0073 25.2931 22.0198 25.2859C22.7182 24.2864 22.8858 22.7649 23.6943 21.5114C23.6455 21.53 23.5973 21.5507 23.5478 21.569C22.7361 21.8763 21.8874 22.0909 21.0208 22.2019C20.7429 22.2447 20.4496 22.2632 20.1494 22.2629C20.1393 22.2929 20.1278 22.3236 20.1124 22.354C19.692 23.1987 19.1563 24.0028 18.6029 24.745C18.1178 25.3868 17.6032 25.9934 17.09 26.5906C16.8772 26.8381 16.6642 27.0841 16.4538 27.3299C16.4517 27.3322 16.4455 27.3397 16.4434 27.342C16.0694 27.7506 15.7119 28.2382 15.221 28.6816C14.6224 29.1608 14.0791 29.1753 13.9237 29.3781C13.7285 29.57 13.5382 29.811 13.3266 30.0629C13.0423 30.4017 12.7517 30.7356 12.4559 31.0631C11.5942 32.0212 10.7012 32.9211 9.89653 33.8717L9.53554 34.3206C9.41856 34.4669 9.31323 34.6059 9.2311 34.743C8.81216 35.4426 8.32103 36.0817 7.84031 36.6956C7.81762 36.723 7.7323 36.8844 7.67399 37.0095C7.60918 37.145 7.55124 37.2791 7.47145 37.4418C7.4171 37.5495 7.35643 37.658 7.26544 37.7751C7.16763 37.8858 7.06896 38.0418 6.74875 38.1292C6.59005 38.1695 6.37887 38.1314 6.25247 38.0543C6.12121 37.9788 6.04754 37.8926 5.99154 37.8199C5.88348 37.6729 5.83452 37.5508 5.78952 37.4327C5.78786 37.4282 5.78256 37.4146 5.7811 37.41C5.58311 36.852 5.68507 36.1556 5.90798 35.6828C6.12147 35.1974 6.35223 34.8229 6.44264 34.4574C6.5383 34.2107 6.3236 33.677 6.61185 32.9651C6.69588 32.7633 6.87549 32.534 7.10159 32.4148C7.32957 32.2909 7.53445 32.2652 7.68645 32.2416C8.01188 32.2013 8.07995 32.1688 8.11354 32.1157C9.24982 30.5607 9.42177 28.0119 11.5972 26.6372C12.0782 26.3725 12.5294 26.1571 12.6138 25.9849C13.0817 25.1542 13.389 24.1893 13.787 23.2233C14.0854 22.4864 14.4144 21.7681 14.7416 21.058C14.5193 20.0692 14.6133 18.8551 15.2298 17.9652C15.4213 17.6818 15.6006 17.5335 15.6484 17.4318C15.6675 17.4007 15.688 17.3402 15.7138 17.2585L15.8131 16.9591C16.1591 15.9849 16.8741 15.4545 17.0024 14.8371C17.0583 14.6243 17.0646 14.3954 17.0201 14.1803C16.8841 13.6324 16.5537 12.9729 16.2589 12.3631C15.9564 11.7542 15.6542 11.1452 15.3517 10.5363C14.978 10.6054 14.6091 10.6485 14.2457 10.6853C12.6441 10.7513 11.2381 10.5542 9.73374 10.3386C9.25729 10.25 8.49293 10.315 7.85357 9.97993C7.18244 9.65082 6.5017 9.33098 5.82212 8.99969C5.28552 8.72664 4.86426 8.6278 4.26791 8.66227C4.25596 8.66278 4.22045 8.66151 4.20813 8.66035C3.80453 8.61812 3.42828 8.53382 3.06838 8.46089C3.01561 8.44798 2.78316 8.46155 2.5869 8.46872C2.48219 8.47167 2.37198 8.47403 2.2422 8.46182C2.11336 8.44027 1.95536 8.45163 1.72353 8.25568C1.67115 8.20627 1.60265 8.06646 1.59477 7.99473C1.57864 7.86069 1.62148 7.74189 1.67553 7.65323C1.60045 7.61896 1.51606 7.5828 1.41013 7.48015C1.30008 7.39572 1.19312 7.09815 1.26762 6.92204C1.27436 6.89985 1.29086 6.87132 1.31011 6.84112C1.23004 6.78116 1.12096 6.72522 1.03121 6.49307C1.00834 6.42172 1.019 6.26667 1.05063 6.19864C1.19888 5.9258 1.39905 5.9035 1.5039 5.87823C1.48654 5.83875 1.47084 5.79183 1.46121 5.73224C1.44192 5.62517 1.46996 5.47592 1.53488 5.37888C1.56068 5.33758 1.64826 5.25785 1.69156 5.23596C1.94039 5.12673 2.08646 5.18158 2.2021 5.2033C2.31757 5.23286 2.40946 5.27047 2.49625 5.30914C2.66613 5.38548 2.82483 5.47814 2.94515 5.53964C2.99236 5.56361 3.04024 5.58402 3.08682 5.60569C3.08107 5.58348 3.07484 5.56027 3.06993 5.53616C3.04008 5.39746 3.02692 5.10453 3.25071 4.90115C3.25729 4.89508 3.27844 4.87846 3.28568 4.87318C3.35147 4.82376 3.48531 4.7585 3.63698 4.77806C3.78743 4.79768 3.87647 4.87059 3.92999 4.91961C4.03487 5.02323 4.06872 5.09588 4.1067 5.16299C4.14182 5.22931 4.16795 5.28876 4.19166 5.33859C4.20091 5.36257 4.2209 5.39601 4.22764 5.40873C4.62498 5.81693 4.97458 6.23859 5.3481 6.59828C5.62389 6.85532 6.24797 6.95191 6.82139 7.02288C7.68776 7.13886 8.68237 7.1414 9.59843 7.58653C10.8517 7.99755 12.6523 8.01893 13.8858 7.57609C14.5465 7.246 15.2897 6.91959 16.1377 6.99587C16.4324 7.02238 16.7168 7.10284 16.979 7.19657C17.0546 7.04287 17.1115 6.88814 17.1544 6.72927C17.1437 6.73523 17.134 6.74321 17.123 6.74905C16.8724 6.86571 16.5745 6.80363 16.3945 6.70989C16.2619 6.64405 16.1533 6.56714 16.0543 6.4862C15.7683 6.55585 15.4525 6.61909 15.135 6.61547C13.5295 6.59992 12.5998 5.17191 11.4016 5.42189C11.0859 5.46991 10.9329 5.10053 11.1894 4.91059C11.4575 4.70846 11.812 4.51263 12.1893 4.44397C12.1504 4.43747 12.1118 4.43239 12.0734 4.42945C11.7156 4.39702 11.3433 4.5546 10.9797 4.7634C10.7315 4.90825 10.4808 4.64809 10.6338 4.40489C10.8017 4.14285 11.0031 3.88883 11.2662 3.68379C11.6575 3.36397 12.2233 3.23968 12.7062 3.33187C12.7564 3.34154 12.8058 3.34785 12.8534 3.35653C12.6338 3.27601 12.4355 3.25327 12.1985 3.30145C11.9465 3.35062 11.8158 3.0457 12.0245 2.89609C12.3503 2.63645 12.8975 2.50155 13.3017 2.61956C13.6997 2.71497 14.0003 2.74941 14.3316 2.61686C14.6892 2.48376 14.9864 2.20975 15.2386 1.88462C15.8087 1.09216 16.8061 0.590561 17.7671 0.557771L17.7554 0.559059ZM19.2922 1.8027C19.4344 0.897743 18.3665 0.666632 17.7817 0.748572C16.7885 0.826334 16.0542 1.16583 15.4024 2.01039C15.1243 2.37083 14.8137 2.65978 14.4083 2.8163C13.438 3.19089 13.092 2.41054 12.1558 3.07983C13.0687 2.90277 13.2148 3.55232 14.2632 3.45411C13.5818 3.77622 13.3735 3.68801 12.6669 3.57413C11.8768 3.44685 11.3047 3.82297 10.8505 4.5415C11.8746 3.94606 12.3362 4.12216 13.3298 4.59359C13.4892 4.66914 13.8068 4.71499 13.9837 4.75752C12.7799 4.96682 12.5075 4.29402 11.3591 5.14044C12.8448 4.91669 13.6573 6.31792 15.134 6.31207C15.5016 6.31058 15.7783 6.24138 16.1349 6.14969C16.822 6.77031 17.1982 6.54261 17.572 5.70541C17.5885 6.49187 17.5145 6.93125 17.1289 7.60032C16.7787 7.46302 16.4781 7.3582 16.1072 7.3232C15.4073 7.25331 14.6708 7.55176 14.0407 7.87612C13.1162 8.35206 10.3767 8.3348 9.45006 7.9109C8.58997 7.49954 7.68301 7.50313 6.7748 7.38708C6.27897 7.3237 5.47556 7.23671 5.09006 6.86927C4.70439 6.50164 4.32127 6.04265 3.9388 5.65545C3.83189 5.5472 3.71233 5.0359 3.50933 5.18206C3.25308 5.41712 3.74483 6.05815 3.85195 6.26439C3.4432 6.17915 3.1559 6.07934 2.77188 5.88898C2.55234 5.78014 2.07916 5.48239 1.8681 5.58821C1.69931 5.85809 2.70208 6.31529 2.90959 6.46688L2.93721 6.48688L2.95344 6.49904C2.68237 6.43622 1.54791 6.09106 1.4158 6.37076C1.50634 6.65357 2.5723 6.87681 2.87368 7.04254C2.58498 7.02402 1.86381 6.89947 1.66187 7.04274C1.59747 7.25383 2.01757 7.33293 2.14534 7.36161C2.43383 7.42638 2.71796 7.47814 3.0033 7.562C2.82722 7.59823 1.98519 7.69098 2.01258 7.95078C2.21116 8.13881 2.87349 7.98957 3.15235 8.04552C3.51264 8.11777 3.88613 8.19952 4.25082 8.23617C4.97787 8.20711 5.33213 8.28232 6.01079 8.61095C6.67152 8.93093 7.38043 9.26255 8.04489 9.58629C8.73102 9.90673 9.15094 9.79213 9.80675 9.90211C10.7125 10.0541 13.247 10.3318 14.1995 10.2342C14.658 10.1871 15.1518 10.1261 15.6044 10.0182L16.6728 12.157C16.9057 12.6313 17.3681 13.5709 17.4762 14.0844C17.5361 14.371 17.5293 14.671 17.4557 14.9547C17.2424 15.7918 16.5135 16.3121 16.254 17.1287C16.1902 17.2946 16.1474 17.5088 16.0641 17.6604C15.9507 17.8668 15.7572 18.0237 15.6305 18.2216C15.0428 19.1404 14.9979 20.0495 15.2479 21.1075C14.8946 21.8776 14.557 22.611 14.2367 23.4048C13.8517 24.3403 13.531 25.3523 13.0408 26.2247C12.8225 26.6133 12.2033 26.8459 11.8496 27.0583C9.97342 28.1852 9.72973 30.6687 8.52329 32.4006C8.1449 32.9434 7.35484 32.4949 7.06811 33.1734C6.86583 33.6027 7.04389 34.1373 6.92899 34.5827C6.68531 35.5274 5.91975 36.1745 6.26224 37.2576C6.48084 37.8494 6.78215 37.6926 7.0199 37.2162C7.11968 37.0163 7.3166 36.5454 7.4422 36.3845C7.92663 35.7642 8.38307 35.1712 8.79646 34.4822C8.99288 34.1548 9.27985 33.8418 9.50894 33.5434C10.3324 32.5702 11.2274 31.6683 12.077 30.7226C12.3686 30.3997 12.6548 30.0702 12.9357 29.7354C13.1393 29.4934 13.3443 29.2336 13.5664 29.015C13.9324 28.6545 14.5068 28.6352 14.8808 28.3009C15.3065 27.9202 15.6769 27.426 16.0663 26.9983C16.7781 26.1667 17.5322 25.3156 18.1955 24.4377C18.7815 23.6439 19.2041 23.0184 19.6577 22.1233C19.181 22.1049 18.7942 22.0633 18.3302 21.922C17.011 21.52 15.9588 20.2571 16.0065 18.6534C16.0103 18.5318 16.0223 18.4062 16.0316 18.2835C16.0653 18.7128 16.1017 19.0783 16.2568 19.4776C17.0518 21.5227 19.1713 21.916 20.9612 21.7022C21.78 21.5978 22.5878 21.3967 23.3708 21.1012C24.5051 20.6835 25.0262 20.3688 26.2309 20.1632C26.0824 20.2559 25.9173 20.3055 25.757 20.3741C25.4827 20.4896 25.2211 20.6426 24.9794 20.8304C23.3639 22.0922 23.4787 23.9602 22.4223 25.564C22.1294 26.0084 21.0646 25.748 20.9155 26.5728C20.7574 27.1537 21.0879 27.6397 21.0201 28.2343C20.9567 28.791 20.6901 29.1248 20.4438 29.6171C20.2171 30.0706 20.125 31.4403 20.6732 31.6392C21.2344 31.7425 21.3312 30.5573 21.5679 30.1502C21.8013 29.7493 22.0244 29.4733 22.2268 29.1199C22.5615 28.5219 22.7937 27.8181 23.1523 27.2397C24.1695 25.6002 25.5292 24.2441 26.8017 22.8652C27.5713 22.031 28.5587 21.249 28.7885 20.0009C28.854 19.6454 28.8593 19.128 28.656 18.8206C28.0253 17.9502 26.4605 17.512 25.5127 17.3409C23.8389 17.0387 22.3522 17.2618 20.7089 17.5184C21.3425 16.5578 21.5124 15.4024 21.7799 14.264C21.8207 14.0913 21.9219 13.4528 21.9691 13.34C22.2354 12.7023 22.7286 12.4213 22.6435 11.568C22.5954 11.0893 22.2048 10.6016 21.9313 10.2411C22.8611 10.037 23.3962 9.69989 24.2001 9.16027C24.476 8.97507 24.7809 8.77418 25.0716 8.62637C25.7551 8.27881 26.463 8.27478 27.0702 7.72884C27.5003 7.34235 27.7922 6.90048 28.16 6.45392C28.4304 6.12596 28.7351 5.83618 29.067 5.5912C29.3447 5.38409 29.476 5.24011 29.8273 5.23659C30.4086 5.23089 30.976 4.92864 31.5396 4.79033C31.7437 4.73947 32.1399 4.64968 32.265 4.46036L32.2598 4.41365C32.0837 4.27456 31.6294 4.36453 31.3913 4.3592L31.4211 4.33938C31.7318 4.13826 32.3679 4.00664 32.5225 3.73805C32.5222 3.61701 32.416 3.58065 32.325 3.60039C32.0033 3.67055 31.7195 3.7873 31.3921 3.84226C31.7339 3.6266 32.4911 3.36009 32.6079 3.07172C32.5801 2.76045 31.4181 3.31358 31.227 3.39479C31.4366 3.22136 32.2317 2.67578 32.1643 2.39092C32.1173 2.36128 32.08 2.34829 32.026 2.37485C31.4036 2.68258 30.9845 3.01748 30.3126 3.24329C30.445 2.99237 30.8641 2.35997 30.5596 2.14829C30.4945 2.1461 30.4888 2.13152 30.4376 2.19508C30.3507 2.30351 30.2379 2.5845 30.1644 2.68001C29.9569 2.93349 29.7532 3.16569 29.5504 3.4258C29.3465 3.68747 29.1752 4.19909 28.9514 4.40146C28.3066 4.9847 27.4831 5.37616 26.7308 5.74483C26.3785 5.9175 26.0527 6.05544 25.7169 6.2592C25.1541 6.62127 24.7378 7.07826 24.1236 7.37502C23.7108 7.57427 23.3768 7.73453 22.9204 7.80519C22.5084 7.86901 22.1155 7.84493 21.7039 7.87339C21.1016 7.91507 20.5698 8.09789 20.0028 8.30754C19.5613 7.91751 19.2084 7.51009 19.1526 6.85321C19.1351 6.64703 19.1285 6.13184 19.261 6.01391C19.6655 5.65415 20.4845 6.21579 20.1434 5.11632C20.2388 4.75863 20.2291 4.53946 20.1348 4.19016C20.2012 4.12536 20.3648 3.98338 20.3557 3.88556C20.33 3.61746 19.9172 3.37754 19.7945 3.16608C19.6644 2.94147 19.7078 2.70224 19.6435 2.4581C19.5852 2.25651 19.4046 1.98569 19.2922 1.8027ZM6.61185 32.9651C6.60995 32.9697 6.60822 32.9746 6.60642 32.9791L6.6145 32.9602C6.6138 32.962 6.61254 32.9634 6.61185 32.9651ZM30.675 2.38554L30.6733 2.38715C30.6904 2.3741 30.6749 2.3788 30.675 2.38554Z" fill="white"/>
</g>
</svg>
