<svg preserveAspectRatio="none" overflow="visible" style="display: block;" width="163.024" height="16.0516" viewBox="0 0 163.024 16.0516" fill="none" xmlns="http://www.w3.org/2000/svg">
<g id="&#208;&#188;&#208;&#190;&#208;&#181; &#208;&#180;&#208;&#176;&#208;&#178;&#208;&#187;&#208;&#181;&#208;&#189;&#208;&#184;&#208;&#181;">
<path d="M0 13.2674V0.186864H1.98076L7.7175 9.73563H6.65237L12.2957 0.186864H14.2764L14.3138 13.2674H11.9967L11.978 3.79335H12.4638L7.68012 11.7725H6.59631L1.73784 3.79335H2.29843V13.2674H0Z" fill="#1482BF"/>
<path d="M24.0474 13.4542C23.0259 13.4542 22.0853 13.2861 21.2257 12.9497C20.3662 12.6133 19.6187 12.1462 18.9834 11.5482C18.348 10.9378 17.856 10.2277 17.5071 9.41796C17.1583 8.59576 16.9839 7.69881 16.9839 6.72711C16.9839 5.75542 17.1583 4.8647 17.5071 4.05496C17.856 3.23275 18.348 2.52267 18.9834 1.9247C19.6187 1.31428 20.3662 0.84089 21.2257 0.504534C22.0853 0.168178 23.0196 0 24.0287 0C25.0502 0 25.9845 0.168178 26.8317 0.504534C27.6912 0.84089 28.4387 1.31428 29.074 1.9247C29.7094 2.52267 30.2015 3.23275 30.5503 4.05496C30.8991 4.8647 31.0735 5.75542 31.0735 6.72711C31.0735 7.69881 30.8991 8.59576 30.5503 9.41796C30.2015 10.2402 29.7094 10.9502 29.074 11.5482C28.4387 12.1462 27.6912 12.6133 26.8317 12.9497C25.9845 13.2861 25.0565 13.4542 24.0474 13.4542ZM24.0287 11.324C24.689 11.324 25.2994 11.2119 25.86 10.9876C26.4206 10.7634 26.9064 10.4457 27.3175 10.0346C27.7286 9.61105 28.0463 9.12521 28.2705 8.57707C28.5072 8.01648 28.6256 7.39983 28.6256 6.72711C28.6256 6.0544 28.5072 5.44398 28.2705 4.89584C28.0463 4.33525 27.7286 3.8494 27.3175 3.4383C26.9064 3.01474 26.4206 2.69085 25.86 2.46661C25.2994 2.24237 24.689 2.13025 24.0287 2.13025C23.3685 2.13025 22.758 2.24237 22.1974 2.46661C21.6493 2.69085 21.1635 3.01474 20.7399 3.4383C20.3288 3.8494 20.0049 4.33525 19.7682 4.89584C19.544 5.44398 19.4318 6.0544 19.4318 6.72711C19.4318 7.38737 19.544 7.99779 19.7682 8.55839C20.0049 9.11898 20.3288 9.61105 20.7399 10.0346C21.151 10.4457 21.6368 10.7634 22.1974 10.9876C22.758 11.2119 23.3685 11.324 24.0287 11.324Z" fill="#1482BF"/>
<path d="M33.7592 13.2674V0.186864H43.308V2.22369H36.1885V11.2305H43.5696V13.2674H33.7592ZM36.0016 7.62406V5.62462H42.5045V7.62406H36.0016Z" fill="#1482BF"/>
<path d="M52.9369 11.5856L50.3208 11.2119C50.7942 11.2368 51.1804 11.0748 51.4794 10.726C51.7908 10.3772 52.0337 9.89135 52.2081 9.26847C52.3825 8.64559 52.5133 7.91682 52.6005 7.08216C52.6877 6.23504 52.75 5.3194 52.7874 4.33525L52.9369 0.186864H62.523V12.1462H60.1312V2.24237H55.0111L54.9177 4.55949C54.8803 5.43152 54.8242 6.25995 54.7495 7.04478C54.6872 7.81716 54.5813 8.52101 54.4318 9.15635C54.2948 9.79169 54.1017 10.3211 53.8525 10.7447C53.6034 11.1683 53.2982 11.4486 52.9369 11.5856ZM49.8723 16.0516L49.891 11.2119H64.4104V16.0516H62.168V13.2674H52.1334V16.0516H49.8723Z" fill="#1482BF"/>
<path d="M65.0529 13.2674L70.9391 0.186864H73.3309L79.2359 13.2674H76.6945L71.6305 1.47623H72.6022L67.5568 13.2674H65.0529ZM67.7624 10.2402L68.4164 8.33415H75.4799L76.1339 10.2402H67.7624Z" fill="#1482BF"/>
<path d="M81.2604 13.2674V0.186864H87.1093C88.5793 0.186864 89.7254 0.479618 90.5476 1.06513C91.3698 1.63818 91.7809 2.46661 91.7809 3.55042C91.7809 4.62178 91.3885 5.45021 90.6036 6.03572C89.8188 6.60877 88.7848 6.89529 87.5017 6.89529L87.838 6.22258C89.2956 6.22258 90.423 6.51534 91.2203 7.10084C92.0176 7.68635 92.4162 8.53347 92.4162 9.6422C92.4162 10.7758 91.9989 11.6666 91.1642 12.3144C90.3296 12.9497 89.0963 13.2674 87.4643 13.2674H81.2604ZM83.6523 11.3987H87.3896C88.2367 11.3987 88.8783 11.243 89.3143 10.9316C89.7503 10.6077 89.9683 10.1156 89.9683 9.45533C89.9683 8.79508 89.7503 8.31546 89.3143 8.01648C88.8783 7.70504 88.2367 7.54932 87.3896 7.54932H83.6523V11.3987ZM83.6523 5.77411H86.9037C87.6885 5.77411 88.2865 5.61839 88.6976 5.30695C89.1087 4.98305 89.3143 4.52212 89.3143 3.92415C89.3143 3.30127 89.1087 2.83411 88.6976 2.52267C88.2865 2.21123 87.6885 2.05551 86.9037 2.05551H83.6523V5.77411Z" fill="#1482BF"/>
<path d="M94.9406 13.4542C94.7289 13.4542 94.5171 13.4355 94.3053 13.3982C94.0935 13.3608 93.863 13.3172 93.6139 13.2674L93.7821 11.1558C93.9565 11.2056 94.1433 11.2305 94.3427 11.2305C94.8659 11.2305 95.2832 11.0188 95.5947 10.5952C95.9061 10.1592 96.1303 9.52385 96.2674 8.68919C96.4044 7.85453 96.4978 6.82678 96.5477 5.60593L96.7345 0.186864H106.358V13.2674H103.966V1.64441L104.527 2.24237H98.3042L98.8274 1.62572L98.6966 5.5125C98.6592 6.80809 98.572 7.94796 98.435 8.93211C98.298 9.91627 98.0862 10.7447 97.7997 11.4174C97.5256 12.0777 97.1581 12.5822 96.6972 12.931C96.2362 13.2798 95.6507 13.4542 94.9406 13.4542Z" fill="#1482BF"/>
<path d="M110.038 13.2674V0.186864H119.587V2.22369H112.467V11.2305H119.848V13.2674H110.038ZM112.28 7.62406V5.62462H118.783V7.62406H112.28Z" fill="#1482BF"/>
<path d="M131.75 13.2674V0.186864H134.179V13.2674H131.75ZM122.556 13.2674V0.186864H124.985V13.2674H122.556ZM124.78 7.66144V5.58724H131.937V7.66144H124.78Z" fill="#1482BF"/>
<path d="M137.867 13.2674V0.186864H140.259V9.47402L147.285 0.186864H149.546V13.2674H147.154V3.9989L140.128 13.2674H137.867Z" fill="#1482BF"/>
<path d="M153.214 13.2674V0.186864H162.762V2.22369H155.643V11.2305H163.024V13.2674H153.214ZM155.456 7.62406V5.62462H161.959V7.62406H155.456Z" fill="#1482BF"/>
</g>
</svg>
